<svg xmlns="http://www.w3.org/2000/svg" width="114.51" height="114.51" viewBox="0 0 114.51 114.51"><path fill="none" d="M257.12 198.604"/><path fill="#b88c47" d="M57.197 3.18c29.7 0 53.77 24.068 53.77 53.77 0 29.7-24.07 53.798-53.77 53.798s-53.77-24.068-53.77-53.8c0-29.67 24.07-53.768 53.77-53.768m0-2.758C26.015.422.64 25.797.64 56.978c0 31.183 25.376 56.557 56.557 56.557 31.18 0 56.556-25.374 56.556-56.557 0-31.18-25.376-56.556-56.556-56.556z"/><g fill="#b88c47" stroke="#b88c47" stroke-width=".5" stroke-miterlimit="10"><path d="M10.193 46.033c-.436.145-1.713.842-1.713 2.584 0 1.684.726 2.584 2.438 2.584h5.487v1.278h-5.487c-2.613 0-3.745-1.626-3.745-3.804 0-2.67 1.48-3.426 2.44-3.833l.58 1.193zM16.754 63.19l-1.307.088-.378-6.04-2.382.147.205 3.048-1.306.088-.204-3.047-2.758.174.406 6.242-1.305.087-.465-7.55 9.03-.582.464 7.346zM17.596 66.966l-4.937 7.17v.03l6.56-2.09.407 1.22-8.622 2.757-.406-1.22 4.933-7.17v-.03l-6.56 2.09-.407-1.218 8.624-2.76.406 1.22zM15.273 79.22c-.03.724-.436 2 .726 3.83.638 1.016 1.885 2.18 2.815 1.597 1.248-.782.377-2.205-.232-3.163l-.698-1.134c-.64-1.046-.84-2.612.58-3.483 1.627-1.017 3.514.348 4.384 1.742 1.074 1.71.93 3.31.9 3.773l-1.278-.06c-.03-.898.088-1.71-.696-2.99-.58-.958-1.713-1.944-2.613-1.363-.58.376-.61.986-.086 1.857l.64 1.017c1.102 1.77 1.712 3.745-.204 4.937-1.598 1.018-3.456-.203-4.645-2.09-1.423-2.294-.958-3.98-.784-4.733l1.19.262zM31.3 88.856l-.93.93-4.268-4.27-1.684 1.687 2.148 2.147-.93.93-2.148-2.148-1.945 1.943 4.442 4.413-.93.93-5.34-5.343 6.387-6.416 5.197 5.196zM34.436 91.12l1.074 8.624h.03l3.512-5.922 1.103.666-4.616 7.812-1.104-.67-1.075-8.65h-.028l-3.513 5.923-1.104-.67 4.615-7.808 1.106.695zM57.167 98.263l-.115 1.307-6.01-.58-.233 2.382 3.018.29-.116 1.305-3.02-.29-.262 2.76 6.243.61-.115 1.305-7.52-.727.87-9.03 7.26.668zM63.584 97.594c3.106-.462 4.703 1.744 5.02 3.777.38 2.496-1.13 4.79-3.656 5.195l-4.064.61-1.364-8.972 4.064-.61zM60.97 99.31l.96 6.385 2.786-.435c2.178-.318 2.787-2.352 2.584-3.687-.29-1.917-1.77-2.96-3.542-2.7l-2.787.436zM79.61 98.146c.696 1.568.87 3.572-2.12 4.907s-4.354-.146-5.052-1.712l-2.293-5.167 1.19-.522 2.293 5.17c.552 1.217 1.452 1.886 3.34 1.044 1.916-.844 2.003-1.975 1.478-3.195l-2.293-5.17 1.19-.52 2.267 5.166zM91.223 91.79c-.058 1.247-.348 2.61-2.322 4.238-1.885 1.54-4.848 1.51-6.59-.64-1.684-2.06-1.452-5.022.61-6.676 1.888-1.54 3.948-1.366 4.558-1.31l-.232 1.25c-.52 0-2.06-.086-3.483 1.073-1.306 1.046-1.858 3.108-.436 4.85 1.017 1.247 3.106 1.77 5.02.23 1.483-1.218 1.657-2.582 1.657-3.222l1.22.206zM99.875 83.487l-.87 1.16-3.165-.783-2.41 3.192 1.568 2.846-.843 1.133-4.79-8.682.87-1.134 9.64 2.267zm-8.768-.698l1.654 3.02 1.686-2.237-3.34-.784zM95.955 70.71l1.19.553-1.306 2.845 7.054 3.252-.552 1.16-7.056-3.25-1.306 2.874-1.19-.553 3.165-6.88zM96.71 67.75l8.71 2.524-.348 1.25-8.71-2.527.348-1.248zM102.023 66.066c-2.815-.29-4.47-2.672-4.238-5.227.26-2.557 2.322-4.59 5.168-4.327 2.815.26 4.47 2.67 4.238 5.226-.26 2.554-2.35 4.587-5.167 4.326zm.813-8.275c-1.858-.173-3.542 1.134-3.745 3.166-.202 2.03 1.19 3.63 3.05 3.832 1.857.175 3.542-1.132 3.745-3.165.202-2.032-1.19-3.657-3.05-3.832zM98.162 52.536l6.88-5.313v-.03h-6.88v-1.276h9.06v1.277l-6.882 5.314v.028h6.88v1.278h-9.058v-1.278z"/></g><g fill="#b88c47"><path d="M31.212 25.65l-1.22.437-.26-1.248 1.83-.756h.84v8.71h-1.19V25.65zM36.235 32.968c-.466 0-.872-.087-1.22-.29-.347-.204-.667-.436-.957-.755l.64-1.16c.26.29.52.492.754.61.232.144.523.202.813.202.262 0 .464-.058.667-.203.203-.146.377-.32.494-.552.145-.23.26-.522.32-.87.086-.35.116-.698.145-1.105-.174.26-.377.494-.638.667-.26.175-.58.262-.96.262-.347 0-.696-.06-.985-.203-.29-.115-.552-.318-.755-.55-.203-.233-.377-.523-.494-.872-.117-.348-.174-.726-.174-1.132v-.03c0-.406.057-.812.174-1.19s.29-.696.523-.957c.233-.263.495-.466.813-.64.32-.145.668-.233 1.017-.233.436 0 .785.088 1.075.233.29.145.55.377.812.696.262.32.465.727.61 1.25.145.522.23 1.19.23 2.032v.03c0 .696-.056 1.334-.202 1.915-.145.58-.32 1.074-.582 1.48-.26.407-.55.727-.928.96-.35.29-.755.405-1.19.405zm.232-4.47c.203 0 .406-.03.58-.117.175-.086.32-.202.437-.348.115-.145.202-.32.26-.494.058-.174.087-.377.087-.61V26.9c0-.464-.116-.842-.376-1.133-.26-.29-.61-.464-1.046-.464-.203 0-.406.03-.58.116-.175.086-.32.203-.437.347-.114.146-.202.32-.26.523-.057.203-.086.407-.086.61v.028c0 .465.116.813.377 1.104.292.32.64.465 1.047.465zM42.593 32.968c-.464 0-.87-.087-1.22-.29-.35-.204-.667-.436-.958-.755l.638-1.16c.262.29.523.492.755.61.232.144.522.202.813.202.26 0 .465-.058.668-.203.203-.146.377-.32.494-.552.145-.23.232-.522.318-.87.087-.35.117-.698.146-1.105-.174.26-.378.494-.64.667-.26.175-.58.262-.957.262-.35 0-.697-.06-.988-.203-.29-.115-.552-.318-.755-.55-.203-.233-.378-.523-.494-.872-.117-.348-.174-.726-.174-1.132v-.03c0-.406.056-.812.173-1.19.115-.376.29-.696.523-.957.232-.263.494-.466.812-.64.32-.145.67-.233 1.017-.233.435 0 .784.088 1.074.233.29.145.55.377.812.696.26.32.464.727.61 1.25.145.522.23 1.19.23 2.032v.03c0 .696-.056 1.334-.202 1.915-.145.58-.318 1.074-.58 1.48-.26.407-.552.727-.93.96-.316.29-.722.405-1.187.405zm.26-4.47c.204 0 .407-.03.58-.117s.32-.202.437-.348c.117-.145.204-.32.26-.494.06-.174.088-.377.088-.61V26.9c0-.464-.117-.842-.378-1.133-.262-.29-.61-.464-1.044-.464-.203 0-.406.03-.58.116-.175.086-.32.203-.437.347-.117.146-.204.32-.263.523-.057.203-.086.407-.086.61v.028c0 .465.116.813.378 1.104.262.32.61.465 1.046.465zM49.328 32.968c-.406 0-.784-.087-1.103-.232-.32-.146-.582-.378-.813-.667-.116-.176-.232-.35-.348-.553-.088-.203-.174-.436-.262-.697-.06-.26-.115-.55-.174-.9-.03-.348-.06-.726-.06-1.16v-.03c0-.667.06-1.277.175-1.858.117-.58.29-1.074.552-1.48.232-.436.55-.755.9-.987.377-.232.784-.377 1.278-.377.436 0 .812.087 1.132.26.318.175.638.407.93.698l-.64 1.16c-.233-.23-.465-.434-.696-.55-.234-.146-.495-.203-.785-.203-.262 0-.465.058-.667.203-.205.145-.378.32-.494.58-.146.263-.232.552-.32.872-.087.35-.115.697-.145 1.104.085-.116.202-.203.29-.32.116-.115.23-.203.348-.29.145-.087.29-.145.435-.203.146-.06.35-.088.552-.088.32 0 .638.058.93.174.29.116.55.29.754.523.202.23.376.52.522.87.115.35.174.726.174 1.16v.03c0 .436-.06.813-.203 1.19-.117.35-.32.668-.523.93-.232.26-.494.463-.813.61-.232.14-.58.228-.93.228zm-.03-1.307c.206 0 .41-.027.583-.115.175-.087.32-.203.436-.32.116-.145.203-.32.262-.493.057-.174.086-.406.086-.61v-.03c0-.434-.115-.783-.376-1.073-.262-.292-.58-.437-1.016-.437-.204 0-.407.03-.58.116-.176.086-.32.203-.436.32-.117.145-.205.29-.29.492-.06.175-.088.377-.088.58v.03c0 .232.03.436.117.61.057.203.174.348.29.494.117.146.26.26.437.32.17.058.374.115.577.115z"/></g><path fill="#b88c47" d="M55.92 23.33v8.447c0 1.25-.175 2.643.116 3.804-.32-.202-.582-.348-.872-.58-.318-.262-.928-.58-1.074-.9-.26-.668 0-1.51 0-2.207v-9.03c0-.957.117.233-.115-.638.493.436 1.102.9 1.944 1.104zM55.57 36.016c-1.102-.174-3.135-.087-4.354-.03-1.77.06-3.687-.028-5.37.03-.872.03-2.353.03-3.02.116-.204.03 0 0-.175.06-.434.115-.928.173-1.51.26.06-.58.553-1.16 1.366-1.452 1.742-.64 5.226-.203 7.983-.35 1.103-.057 1.945-.29 2.728-.493.727.64 1.57 1.22 2.352 1.86zM28.425 34.217c.843.174 1.655.377 2.67.464 2.556.146 6.07-.29 7.868.262 1.017.32 1.538.813 1.626 1.51-.552-.06-1.133-.146-1.568-.29-.117-.06-.958-.147-1.075-.147h-.115c-2.584.175-5.777 0-8.42 0-1.218 0-2.497-.03-3.31.175.813-.667 1.712-1.22 2.323-1.973zM25.812 35.32c.26-1.046.058-2.294.058-3.427V23.33c.668-.147 1.19-.407 1.538-.698.117-.087.146-.174.32-.232.203-.06 0 1.655 0 2.468v6.91c0 .725.262 1.596 0 2.293-.087.204-1.625 1.482-1.858 1.54-.203.087-.087-.203-.058-.29z"/><g fill="#b88c47"><path d="M85.01 17.406c-11.874 0-22.21-7.287-27.813-16.578-5.603 9.29-15.97 16.578-27.813 16.578-3.368 0-6.59-.493-9.64-1.423v41.053c0 2.178.204 4.297.552 6.388.61-.96 1.424-1.945 2.47-2.76.783-.58 1.683-1.073 2.698-1.45 1.163-.406 2.527-.493 3.717-.174 2.76.695 4.558 2.757 5.604 4.353.464.726 1.103 1.307 1.48 1.597.146.087.263.174.378.232.26.145.552.32.784.668.203.32.667 1.828 1.015 3.02l.147.522c.638 1.684.958 2.758.9 3.28-.087.958-.9 1.423-1.337 1.684l-.115.06c-.03 0-.06.028-.06.028-3.482 1.336-4.47 1.567-6.096 1.684h-.03c-.174 0-.348-.116-.406-.26-.06-.176 0-.38.145-.495.232-.175.668-.32 1.335-.552.987-.318 2.438-.782 4.326-1.74.29-.175.58-.32.29-1.336-.202-.696-.52-1.51-1.014-2.585-.088-.204-.205-.406-.32-.64-.29-.61-.61-1.335-.988-1.567l-.203-.174c-.785-.64-1.685-1.365-2.293-2.323-.667-1.074-2.12-2.933-4.182-3.542-1.392-.465-3.048-.116-4.993.986-1.366.814-2.38 2.063-3.05 3.166 1.54 6.997 5.023 13.268 9.873 18.204 4.063-3.86 12.57-11.207 14.05-10.51.64.318 1.25.93 1.133 1.538-.03.146-.06.262-.088.378.464.028 1.017.203 1.192.986.29.87-.262 1.598-.64 2.062-.088.115-.232.29-.29.406 1.015 1.888.23 3.57-2.324 5.14-.783.464-2.002 1.074-4.354 1.54-.988.2-2.73 1.275-4.125 2.406 4.994 3.66 10.917 6.128 17.363 6.97-.582-1.134-1.163-2.18-1.772-2.933-.203-.26-.464-.523-.726-.783-1.132-1.162-2.555-2.585-2.264-6.012.174-2.03 2.873-4.5 5.748-6.707l2.236.698c-.755.757-1.48 1.452-2.148 2.062-3.397 3.164-4.965 4.616-1.335 8.913.667.783 1.626 2.787 2.525 4.964.842.058 1.713.087 2.584.087 9.64 0 18.407-3.628 25.056-9.61-.553-.52-1.395-1.45-2.033-2.9-1.133-2.44-1.365-5.78-1.686-9.583-.348-3.802-.9-8.216-2.96-12.716-.523-1.132-1.133-2.264-1.83-3.367l1.336-1.365c.987 1.51 1.77 2.99 2.41 4.56 2.033 4.905 2.236 9.435 2.293 13.18.03 3.746-.027 6.91.842 9.263.493 1.364 1.22 2.322 1.742 2.875 7.578-6.854 12.37-16.782 12.37-27.815V16.012c-3.076.9-6.3 1.394-9.666 1.394zm-21.92 2.44c-.087-.117-.116-.262-.028-.378.057-.116.203-.174.348-.145l2.903.638.9-2.844c.028-.146.175-.232.29-.232.146 0 .262.087.29.232l.9 2.845 2.903-.637c.146-.03.29.03.35.145s.057.26-.03.377l-2.003 2.178 2.004 2.178c.086.117.115.262.028.378-.058.116-.203.175-.35.146l-2.902-.64-.9 2.846c-.028.146-.173.232-.29.232-.145 0-.262-.087-.29-.232l-.9-2.845-2.903.64c-.145.028-.262-.03-.348-.147-.06-.116-.06-.26.03-.377l2-2.177-2-2.178zm7.49 16.316c.087.116.116.26.03.377-.06.115-.203.174-.35.145l-2.206-.494-.667 2.178c-.03.145-.174.232-.29.232-.146 0-.262-.087-.29-.232l-.67-2.177-2.235.495c-.145.03-.26-.03-.348-.146-.06-.117-.06-.262.03-.378l1.537-1.684-1.537-1.684c-.088-.116-.116-.26-.03-.377.06-.116.204-.174.35-.146l2.235.495.668-2.177c.03-.146.175-.232.29-.232.145 0 .262.087.29.232l.668 2.177 2.235-.494c.145-.028.26.03.348.147.058.116.058.26-.03.377l-1.537 1.684 1.51 1.684zM53.656 11.048c-.088-.116-.117-.26-.03-.377.06-.114.204-.173.35-.144l2.235.493.697-2.178c.03-.146.174-.232.29-.232.146 0 .262.087.292.232l.667 2.177 2.205-.494c.146-.03.262.03.35.145.057.117.057.263-.03.378l-1.537 1.684 1.538 1.684c.086.116.115.26.03.377-.06.116-.204.175-.35.146l-2.206-.495-.668 2.178c-.03.146-.176.232-.292.232-.145 0-.262-.087-.29-.232l-.698-2.178-2.235.494c-.146.028-.262-.03-.35-.147-.058-.116-.058-.26.03-.377l1.538-1.684-1.538-1.684zM24.622 37.265c-.232 0-.03-3.136-.03-6.097 0-1.22-.29-8.478-.056-8.478 0-.087 1.103-.058 1.83-.03.493-.376 1.13-.725 1.566-1.13.87.26 1.975.493 3.25.55 4.356.175 9.292-.87 9.67 1.655.754-2.555 5.022-1.45 9.667-1.684 1.335-.058 2.38-.318 3.367-.55.494.377 1.046.725 1.567 1.103.494-.03 1.743-.174 1.743-.03.087 0-.06 5.895 0 8.362.03 2.758.232 6.33 0 6.33 0 .26-5.632 0-8.682 0-1.683 0-3.193.057-4.528-.117-.146 1.132-.494 1.538-3.02 1.538-2.73 0-3.426-.9-3.165-1.45-1.103.115-2.816.028-4.326.028-2.96 0-8.854.146-8.854 0zm4.5 5.43c.088.027 1.25 1.102 3.6 1.654 2.41.637 5.69.202 9.408-.524 3.716-.667 8.187-1.568 13.296-.842 3.63.435 7.316 1.887 10.598 3.833-.377.436-.783.9-1.248 1.423-2.903-1.743-6.098-3.078-9.32-3.6-4.674-.843-9.116-.262-12.948.173-3.833.465-7.346.668-9.87-.174-2.355-.785-3.43-1.917-3.516-1.946zm2.67 2.728c1.075.552 2.468.928 2.468.928l9.988 24.825-12.455-25.752zm10.743.465c-3.63.377-6.94.436-9.262-.406-2.235-.784-3.222-1.83-3.31-1.858.06.03 1.132 1.016 3.34 1.685 2.292.724 5.457.52 9.028 0 3.57-.466 7.87-1.046 12.573-.147 3.223.58 6.444 1.945 9.35 3.687-.233.262-.466.523-.698.813-2.73-1.655-5.69-2.96-8.71-3.57-4.443-.96-8.68-.525-12.31-.205zm5.312 28.25l31.328 7.84s.842 1.51 1.19 2.146l-32.518-9.987zm22.18-19.047c.204.437.437.9.554 1.452.06.232-.058.436-.23.552-.437.26-1.105.232-1.686.117-.377-.058-.755-.116-.987-.058-.463.145-.695.494-1.015.93-.088.115-.176.23-.262.348-.232.29-.67.755-1.308 1.394-1.684 1.713-4.47 4.56-5.08 6.707-.06.204-.088.378-.116.523-.087.667-.29.93-1.22 1.25-.55.173-5.11 3.018-7.867 4.76-.09.058-.176.087-.292.087-.174 0-.318-.087-.435-.203-.174-.232-.145-.522.087-.726.086-.086 2.38-2.09 3.425-2.758.406-.262.843-.493 1.278-.726 1.045-.58 2.15-1.19 2.584-1.858.377-.55.52-.84.668-1.19.145-.32.29-.667.638-1.248.843-1.394 2.003-2.526 3.107-3.6.987-.96 1.916-1.887 2.612-2.933.842-1.306 1.452-2.41 1.888-3.542.667-1.683 4.645-3.803 5.603-4.064.203-.058.436 0 .553.175.348.407.348.812.29 1.045-.175.756-1.132 1.162-1.975 1.51-.29.116-.637.26-.754.377-.638.407-.52.755-.058 1.684zM68.49 60.87c-.522 2.497-5.197 11.382-9.203 14.256l-2.032-.493c1.306-1.073 2.846-2.38 3.076-2.642 1.397-1.742 7.087-11.38 7.144-11.468.146-.232.406-.32.668-.232.26.03.407.29.348.58zm6.765-.435c2.148 4.5 2.67 8.797 2.933 12.37.232 3.57.377 6.618 1.364 8.826.9 2.146 2.293 3.163 2.352 3.222-.06-.088-1.48-1.046-2.555-3.223-1.105-2.268-1.453-5.402-1.858-9.003-.436-3.6-1.104-7.81-3.28-12.078-.67-1.365-.844-1.772-1.772-3.078l.755-.697c.87 1.277 1.48 2.352 2.06 3.658zm.087-12.832c0 .03-1.77-2.583-3.745-.347-.64.726-20.47 20.7-23.4 23.923-1.22 1.248-1.335 1.22-1.335 1.22s-.29 0 .318-.727c2.933-3.224 21.543-24.68 22.442-25.782 1.858-2.265-1.307-3.484-1.277-3.484-.03.03 5.633-.754 7.462-1.452-.436 1.684-.494 6.678-.465 6.65zm2.264-12.396h-.115c-.202 0-.376-.116-.493-.29-.115-.204-.088-.494.088-.668l3.31-3.6-3.31-3.6c-.176-.175-.203-.465-.088-.668.117-.174.29-.29.494-.29h.116l4.762 1.044 1.45-4.645c.09-.232.292-.406.554-.406.232 0 .464.175.55.407l1.452 4.645 4.762-1.045c.03 0 .06 0 .087-.03h.06c.318 0 .55.262.55.553 0 .145-.058.29-.173.407l-3.282 3.57 3.312 3.6c.174.175.203.465.086.668-.115.174-.29.29-.493.29h-.116l-4.762-1.073-1.45 4.645c-.088.232-.29.407-.552.407-.232 0-.466-.175-.553-.407l-1.45-4.645-4.794 1.132zM91.862 51.81c.088.088.088.232.03.32-.06.116-.175.173-.32.145l-3.717-.842-1.132 3.63c-.03.114-.146.202-.262.202-.115 0-.23-.087-.26-.203l-1.133-3.63-3.717.843c-.115.028-.232-.03-.318-.146-.06-.117-.06-.232.027-.32l2.584-2.816-2.585-2.816c-.087-.087-.087-.232-.028-.32.057-.115.174-.174.318-.145l3.717.842 1.132-3.63c.086-.23.464-.23.552 0l1.132 3.63 3.716-.842c.117-.03.232.03.32.146.058.115.058.23-.03.318l-2.583 2.816 2.555 2.816z"/><path d="M43.9 74.515c-1.133-.175-7.288 5.254-10.25 7.897-.87.754-1.566 1.394-2.12 1.887.668.607 1.336 1.218 2.033 1.8 1.743-1.453 4.094-3.136 5.75-3.165 1.217 0 2.844-.67 4.12-1.686.03-.03.088-.086.175-.114.35-.234.99-.67.99-1.31-.03-.26-.118-.435-.262-.666-.117-.233-.262-.464-.29-.785-.06-.435.23-.755.493-1.016.376-.378.435-.523.347-.697-.174-.32-.26-.29-.494-.232-.145.03-.58.116-.813-.29-.203-.377-.028-.783.146-1.074.202-.407.202-.494.173-.55z"/></g></svg>